<svg xmlns="http://www.w3.org/2000/svg" viewBox="0 0 194.1 80.99"><defs><style>.cls-1{fill:#fff;}.cls-2,.cls-3,.cls-4,.cls-5{fill:#95c11f;}.cls-3{opacity:0.7;}.cls-4{opacity:0.5;}.cls-5{opacity:0.3;}</style></defs><title>bbcRisorsa 20</title><g id="Livello_2" data-name="Livello 2"><g id="Livello_2-2" data-name="Livello 2"><path class="cls-1" d="M3.79,58.53A6.47,6.47,0,0,1,5.47,56a8.2,8.2,0,0,1,2-1.31,8.2,8.2,0,0,1,2.34-.58,8.92,8.92,0,0,1,4.3,1.17,8.21,8.21,0,0,1,1.58,1.21,7.8,7.8,0,0,1,1.37,1.86A11.2,11.2,0,0,1,18,61a15,15,0,0,1,.37,3.56A13.48,13.48,0,0,1,18,68.1a10.53,10.53,0,0,1-1.05,2.62,7.28,7.28,0,0,1-1.49,1.81,9.85,9.85,0,0,1-1.69,1.19,10.31,10.31,0,0,1-4.61,1.1,10,10,0,0,1-4.57-1.1,9.42,9.42,0,0,1-1.68-1.19A7.17,7.17,0,0,1,1.43,70.7a10.61,10.61,0,0,1-1-2.64A14.44,14.44,0,0,1,0,64.51V48.07H4.65V57.4ZM9.14,70.36a4.11,4.11,0,0,0,2.32-.58,4,4,0,0,0,1.35-1.47,5.76,5.76,0,0,0,.62-1.89,11.71,11.71,0,0,0,.16-1.87,11.73,11.73,0,0,0-.16-1.88,5.76,5.76,0,0,0-.62-1.89,4,4,0,0,0-1.35-1.47,4.11,4.11,0,0,0-2.32-.58,4.11,4.11,0,0,0-2.32.58,4.09,4.09,0,0,0-1.37,1.47,5.58,5.58,0,0,0-.65,1.89,11.79,11.79,0,0,0,0,3.75,5.58,5.58,0,0,0,.65,1.89,4.09,4.09,0,0,0,1.37,1.47A4.11,4.11,0,0,0,9.14,70.36Z"/><path class="cls-1" d="M30.08,77.12a4.7,4.7,0,0,1-1.29,2.13A6.56,6.56,0,0,1,27,80.4a8.54,8.54,0,0,1-2.18.59H18.68V76.42h4a2.79,2.79,0,0,0,1.56-.32,1.34,1.34,0,0,0,.55-.7,1.72,1.72,0,0,0-.08-1L18.32,54.63h4.81l4.6,15.3,4.61-15.3h4.81Z"/><path class="cls-1" d="M55.89,62c0,.39.1.79.13,1.21s.06.86.06,1.33v.7H42.42c0,.44.11.89.19,1.34A6.5,6.5,0,0,0,43,67.94a4.91,4.91,0,0,0,1.33,1.8,4.4,4.4,0,0,0,5,0,4.91,4.91,0,0,0,1.33-1.8h5.07a9.06,9.06,0,0,1-2.12,4.14,7,7,0,0,1-1.47,1.23,10.67,10.67,0,0,1-1.52.8,10.42,10.42,0,0,1-8.44-.39,9.92,9.92,0,0,1-1.7-1.19A7.25,7.25,0,0,1,39,70.72a10.16,10.16,0,0,1-1-2.62A16.4,16.4,0,0,1,38,61a10.38,10.38,0,0,1,1-2.63,7.36,7.36,0,0,1,1.48-1.86,9.54,9.54,0,0,1,1.7-1.21,10.25,10.25,0,0,1,4.65-1.17,10.83,10.83,0,0,1,4,.9,9.54,9.54,0,0,1,1.58.91,7.58,7.58,0,0,1,1.49,1.41,9.31,9.31,0,0,1,1.21,2A10.33,10.33,0,0,1,55.89,62ZM51,62a8.74,8.74,0,0,0-.49-1.25,3.86,3.86,0,0,0-.8-1.14,3.93,3.93,0,0,0-1.21-.8,4.78,4.78,0,0,0-3.28,0,3.93,3.93,0,0,0-1.21.8,4.35,4.35,0,0,0-.82,1.14A5.6,5.6,0,0,0,42.69,62Z"/><path class="cls-1" d="M62,58.53A6.47,6.47,0,0,1,63.67,56,7.09,7.09,0,0,1,68,54.12a8.91,8.91,0,0,1,4.29,1.17,7.92,7.92,0,0,1,1.58,1.21,7.8,7.8,0,0,1,1.37,1.86,10.77,10.77,0,0,1,1,2.63,15,15,0,0,1,.38,3.56,13.91,13.91,0,0,1-.41,3.55,10.92,10.92,0,0,1-1.06,2.62,7.25,7.25,0,0,1-1.48,1.81A9.92,9.92,0,0,1,72,73.72a10.31,10.31,0,0,1-4.61,1.1,10,10,0,0,1-4.57-1.1,9.42,9.42,0,0,1-1.68-1.19,7.4,7.4,0,0,1-1.46-1.83,10.61,10.61,0,0,1-1-2.64,14.44,14.44,0,0,1-.39-3.55V48.07h4.65V57.4Zm5.35,11.83a4.11,4.11,0,0,0,2.32-.58A4,4,0,0,0,71,68.31a6,6,0,0,0,.63-1.89,11.79,11.79,0,0,0,0-3.75A6,6,0,0,0,71,60.78a4,4,0,0,0-1.35-1.47,4.93,4.93,0,0,0-4.64,0,4.18,4.18,0,0,0-1.37,1.47A5.56,5.56,0,0,0,63,62.67a11.07,11.07,0,0,0,0,3.75,5.56,5.56,0,0,0,.64,1.89A4.18,4.18,0,0,0,65,69.78,4.11,4.11,0,0,0,67.34,70.36Z"/><path class="cls-1" d="M88.28,77.12A4.7,4.7,0,0,1,87,79.25a6.56,6.56,0,0,1-1.76,1.15,8.43,8.43,0,0,1-2.18.59H76.88V76.42h4a2.75,2.75,0,0,0,1.56-.32,1.34,1.34,0,0,0,.55-.7,1.72,1.72,0,0,0-.08-1L76.53,54.63h4.8l4.61,15.3,4.61-15.3h4.8Z"/><path class="cls-1" d="M114.09,62c0,.39.1.79.14,1.21s.06.86.06,1.33v.7H100.62c0,.44.12.89.19,1.34a6.5,6.5,0,0,0,.39,1.35,4.91,4.91,0,0,0,1.33,1.8,4.4,4.4,0,0,0,5,0,4.91,4.91,0,0,0,1.33-1.8h5.07a8.87,8.87,0,0,1-.87,2.38,9.31,9.31,0,0,1-1.25,1.76,7,7,0,0,1-1.47,1.23,10.67,10.67,0,0,1-1.52.8,10.4,10.4,0,0,1-8.43-.39,9.2,9.2,0,0,1-1.7-1.19,7.07,7.07,0,0,1-1.49-1.81,10.16,10.16,0,0,1-1-2.62,16.4,16.4,0,0,1,0-7.11,10.38,10.38,0,0,1,1-2.63,7.17,7.17,0,0,1,1.49-1.86,8.87,8.87,0,0,1,1.7-1.21A10.24,10.24,0,0,1,105,54.12a10.83,10.83,0,0,1,4,.9,10,10,0,0,1,1.59.91,7.83,7.83,0,0,1,1.48,1.41,9.31,9.31,0,0,1,1.21,2A10.33,10.33,0,0,1,114.09,62Zm-4.92,0a8.74,8.74,0,0,0-.49-1.25,3.86,3.86,0,0,0-.8-1.14,3.93,3.93,0,0,0-1.21-.8,4.78,4.78,0,0,0-3.28,0,3.93,3.93,0,0,0-1.21.8,4.35,4.35,0,0,0-.82,1.14,6.14,6.14,0,0,0-.47,1.25Z"/><path class="cls-2" d="M134.45,62.05h-4.84a10.86,10.86,0,0,0-.49-1.23,3.67,3.67,0,0,0-.79-1.08,3.48,3.48,0,0,0-1.19-.74,4.62,4.62,0,0,0-1.68-.27,3.82,3.82,0,0,0-3.67,2.05,5.76,5.76,0,0,0-.62,1.89,11.07,11.07,0,0,0,0,3.75,5.76,5.76,0,0,0,.62,1.89,3.82,3.82,0,0,0,3.67,2,3.73,3.73,0,0,0,2.87-1A5.35,5.35,0,0,0,129.64,67h4.81a10.34,10.34,0,0,1-.76,2.71,9.72,9.72,0,0,1-1.2,2,7,7,0,0,1-1.44,1.39,10.41,10.41,0,0,1-1.56.9,9.91,9.91,0,0,1-4,.82,10.34,10.34,0,0,1-4.64-1.1,9.92,9.92,0,0,1-1.7-1.19,7.25,7.25,0,0,1-1.48-1.81,10.16,10.16,0,0,1-1-2.62,16.4,16.4,0,0,1,0-7.11,10,10,0,0,1,1.05-2.63,8.11,8.11,0,0,1,1.49-1.86,8.41,8.41,0,0,1,1.72-1.21,10.24,10.24,0,0,1,4.64-1.17,10.54,10.54,0,0,1,4,.9,9,9,0,0,1,1.56.91,7.21,7.21,0,0,1,1.44,1.43,10.18,10.18,0,0,1,1.2,2A10.33,10.33,0,0,1,134.45,62.05Z"/><path class="cls-2" d="M135.79,64.55a14.46,14.46,0,0,1,.39-3.56,10.38,10.38,0,0,1,1-2.63,7.36,7.36,0,0,1,1.48-1.86,9.54,9.54,0,0,1,1.7-1.21,9.75,9.75,0,0,1,9.26,0,9.91,9.91,0,0,1,1.7,1.21,7.58,7.58,0,0,1,1.48,1.86,10.77,10.77,0,0,1,1,2.63,15.62,15.62,0,0,1,0,7.11,10.53,10.53,0,0,1-1,2.62,7.48,7.48,0,0,1-1.48,1.81,10.05,10.05,0,0,1-11,1.19,9.92,9.92,0,0,1-1.7-1.19,7.25,7.25,0,0,1-1.48-1.81,10.16,10.16,0,0,1-1-2.62A14.44,14.44,0,0,1,135.79,64.55Zm9.26-5.82a4.11,4.11,0,0,0-2.32.58,4,4,0,0,0-1.35,1.47,6,6,0,0,0-.63,1.89,11.79,11.79,0,0,0,0,3.75,6,6,0,0,0,.63,1.89,4,4,0,0,0,1.35,1.47,4.93,4.93,0,0,0,4.64,0,4,4,0,0,0,1.35-1.47,5.76,5.76,0,0,0,.62-1.89,11.07,11.07,0,0,0,0-3.75,5.76,5.76,0,0,0-.62-1.89,4,4,0,0,0-1.35-1.47A4.11,4.11,0,0,0,145.05,58.73Z"/><path class="cls-2" d="M169.4,57.4V48.07H174V64.51a14.44,14.44,0,0,1-.39,3.55,10.61,10.61,0,0,1-1,2.64,7.2,7.2,0,0,1-1.47,1.83,8.75,8.75,0,0,1-1.68,1.19,10.16,10.16,0,0,1-4.56,1.1,10.35,10.35,0,0,1-4.65-1.1,9.92,9.92,0,0,1-1.7-1.19,7.25,7.25,0,0,1-1.48-1.81,10.16,10.16,0,0,1-1-2.62,14.44,14.44,0,0,1-.39-3.55A15,15,0,0,1,156,61a10.77,10.77,0,0,1,1-2.63,7.54,7.54,0,0,1,1.37-1.86A7.64,7.64,0,0,1,160,55.29a8.91,8.91,0,0,1,4.29-1.17,8.2,8.2,0,0,1,2.34.58,8.44,8.44,0,0,1,2,1.31,6.69,6.69,0,0,1,1.68,2.52Zm-4.49,13a4.13,4.13,0,0,0,2.32-.58,4.18,4.18,0,0,0,1.37-1.47,5.56,5.56,0,0,0,.64-1.89,11.07,11.07,0,0,0,0-3.75,5.56,5.56,0,0,0-.64-1.89,4.18,4.18,0,0,0-1.37-1.47,4.19,4.19,0,0,0-6,1.47,5.76,5.76,0,0,0-.62,1.89,11.07,11.07,0,0,0,0,3.75,5.76,5.76,0,0,0,.62,1.89,3.82,3.82,0,0,0,3.68,2Z"/><path class="cls-2" d="M194.1,74.42h-4.65V71.69l.86-1.13a6.24,6.24,0,0,1-1.68,2.5,7.49,7.49,0,0,1-2,1.25,8.59,8.59,0,0,1-2.35.51,9,9,0,0,1-4.29-1.1,7.89,7.89,0,0,1-1.58-1.19,7.42,7.42,0,0,1-1.37-1.81,10.94,10.94,0,0,1-1-2.62,15.55,15.55,0,0,1-.37-3.55,14.46,14.46,0,0,1,.39-3.56,10.38,10.38,0,0,1,1-2.63,7.36,7.36,0,0,1,1.48-1.86,9.54,9.54,0,0,1,1.7-1.21A10.25,10.25,0,0,1,185,54.12a10.83,10.83,0,0,1,4.18.72A7.23,7.23,0,0,1,192,56.91a8.48,8.48,0,0,1,1.62,3.28,17.24,17.24,0,0,1,.51,4.39ZM185,58.73a4.15,4.15,0,0,0-2.33.58,4,4,0,0,0-1.34,1.47,5.77,5.77,0,0,0-.63,1.89,11.79,11.79,0,0,0,0,3.75,5.77,5.77,0,0,0,.63,1.89,4,4,0,0,0,1.34,1.47,4.24,4.24,0,0,0,6-1.47,5.56,5.56,0,0,0,.64-1.89,11.71,11.71,0,0,0,.16-1.87,16.06,16.06,0,0,0-.14-2.09,5.44,5.44,0,0,0-.58-1.88,3.37,3.37,0,0,0-1.35-1.35A5,5,0,0,0,185,58.73Z"/><rect class="cls-2" x="3.67" y="29.21" width="11.06" height="11.06"/><rect class="cls-2" x="61.17" y="29.21" width="11.06" height="11.06"/><rect class="cls-2" x="80.34" y="29.21" width="11.06" height="11.06"/><rect class="cls-1" x="99.5" y="29.21" width="11.06" height="11.06" transform="translate(11.74 -24.72) rotate(14.21)"/><rect class="cls-2" x="42" y="29.21" width="11.06" height="11.06"/><rect class="cls-2" x="22.83" y="29.21" width="11.06" height="11.06"/><rect class="cls-2" x="119.27" y="15.6" width="12.11" height="12.11" transform="matrix(0.93, -0.37, 0.37, 0.93, 0.99, 48.41)"/><rect class="cls-3" x="141.68" y="1.16" width="15.12" height="15.12" transform="translate(3.59 -24.98) rotate(9.68)"/><rect class="cls-4" x="166.3" y="14.11" width="9.87" height="9.87" transform="translate(0.35 41.03) rotate(-13.68)"/><rect class="cls-5" x="185.55" y="10.93" width="7.52" height="7.52" transform="matrix(0.94, 0.33, -0.33, 0.94, 15.57, -61.9)"/></g></g></svg>