<?xml version="1.0" encoding="UTF-8" standalone="no"?>
<!DOCTYPE svg PUBLIC "-//W3C//DTD SVG 1.1//EN" "http://www.w3.org/Graphics/SVG/1.1/DTD/svg11.dtd">
<svg width="100%" height="100%" viewBox="0 0 63 57" version="1.1" xmlns="http://www.w3.org/2000/svg" xmlns:xlink="http://www.w3.org/1999/xlink" xml:space="preserve" xmlns:serif="http://www.serif.com/" style="fill-rule:evenodd;clip-rule:evenodd;stroke-linejoin:round;stroke-miterlimit:2;">
    <g transform="matrix(3.12462,0,0,-3.12462,2.47248e-08,56.2432)">
        <path d="M19.549,7.831L17.71,7.831L17.71,1.119C17.71,0.615 17.501,0 16.609,0L12.203,0L12.203,6.712L7.797,6.712L7.797,0L3.391,0C2.499,0 2.29,0.615 2.29,1.119L2.29,7.831L0.451,7.831C-0.21,7.831 -0.067,8.189 0.385,8.67L9.218,17.653C9.438,17.877 9.714,17.989 10,18C10.286,17.989 10.562,17.877 10.782,17.653L19.615,8.67C20.067,8.189 20.21,7.831 19.549,7.831" style="fill:#95c11f;"/>
    </g>
</svg>
